<?xml version="1.0" encoding="UTF-8" standalone="no"?>
<!DOCTYPE svg PUBLIC "-//W3C//DTD SVG 1.1//EN" "http://www.w3.org/Graphics/SVG/1.1/DTD/svg11.dtd">
<svg width="100%" height="100%" viewBox="0 0 98 96" version="1.1" xmlns="http://www.w3.org/2000/svg" xmlns:xlink="http://www.w3.org/1999/xlink" xml:space="preserve" xmlns:serif="http://www.serif.com/" style="fill-rule:evenodd;clip-rule:evenodd;stroke-linejoin:round;stroke-miterlimit:2;">
    <rect x="0" y="0" width="98" height="96"/>
    <path d="M48.845,11.061c-20.79,0 -37.596,16.931 -37.596,37.876c-0,16.742 10.768,30.914 25.707,35.93c1.868,0.377 2.552,-0.815 2.552,-1.818c-0,-0.878 -0.062,-3.887 -0.062,-7.023c-10.458,2.258 -12.636,-4.515 -12.636,-4.515c-1.681,-4.39 -4.171,-5.518 -4.171,-5.518c-3.423,-2.32 0.249,-2.32 0.249,-2.32c3.797,0.251 5.79,3.888 5.79,3.888c3.36,5.768 8.776,4.138 10.954,3.135c0.311,-2.446 1.308,-4.139 2.366,-5.079c-8.341,-0.878 -17.117,-4.139 -17.117,-18.687c-0,-4.139 1.493,-7.525 3.858,-10.159c-0.373,-0.94 -1.68,-4.828 0.374,-10.033c0,0 3.175,-1.003 10.332,3.888c3.065,-0.829 6.225,-1.251 9.4,-1.255c3.174,0 6.41,0.44 9.398,1.255c7.159,-4.891 10.333,-3.888 10.333,-3.888c2.055,5.205 0.747,9.093 0.373,10.033c2.428,2.634 3.86,6.02 3.86,10.159c-0,14.548 -8.776,17.746 -17.18,18.687c1.37,1.191 2.552,3.448 2.552,7.023c-0,5.079 -0.062,9.155 -0.062,10.409c0,1.003 0.685,2.195 2.552,1.819c14.939,-5.018 25.707,-19.189 25.707,-35.931c0.062,-20.945 -16.806,-37.876 -37.533,-37.876Z" style="fill:#fff;"/>
</svg>
